<svg xmlns="http://www.w3.org/2000/svg" width="58" height="58" viewBox="0 0 58 58">
  <g id="Group_34" data-name="Group 34" transform="translate(-1063 -467)">
    <circle id="Ellipse_4" data-name="Ellipse 4" cx="29" cy="29" r="29" transform="translate(1063 467)" fill="#fff"/>
    <path id="Icon_awesome-mobile-alt" data-name="Icon awesome-mobile-alt" d="M14.888,0H2.627A2.628,2.628,0,0,0,0,2.627V25.4a2.628,2.628,0,0,0,2.627,2.627H14.888A2.628,2.628,0,0,0,17.516,25.4V2.627A2.628,2.628,0,0,0,14.888,0ZM8.758,26.274a1.752,1.752,0,1,1,1.752-1.752A1.75,1.75,0,0,1,8.758,26.274Zm6.131-5.912a.659.659,0,0,1-.657.657H3.284a.659.659,0,0,1-.657-.657V3.284a.659.659,0,0,1,.657-.657H14.232a.659.659,0,0,1,.657.657Z" transform="translate(1082.176 481.987)" fill="#780095"/>
  </g>
</svg>
