<svg xmlns="http://www.w3.org/2000/svg" width="58" height="58" viewBox="0 0 58 58">
  <g id="Group_36" data-name="Group 36" transform="translate(-1279 -467)">
    <circle id="Ellipse_3" data-name="Ellipse 3" cx="29" cy="29" r="29" transform="translate(1279 467)" fill="#fff"/>
    <g id="Icon_feather-settings" data-name="Icon feather-settings" transform="translate(1297.778 485.491)">
      <path id="Path_9" data-name="Path 9" d="M19.232,16.366A2.866,2.866,0,1,1,16.366,13.5,2.866,2.866,0,0,1,19.232,16.366Z" transform="translate(-5.857 -5.857)" fill="none" stroke="#780095" stroke-linecap="round" stroke-linejoin="round" stroke-width="3"/>
      <path id="Path_10" data-name="Path 10" d="M19.079,14.876a1.576,1.576,0,0,0,.315,1.739l.057.057a1.912,1.912,0,1,1-2.7,2.7l-.057-.057A1.589,1.589,0,0,0,14,20.446v.162a1.911,1.911,0,0,1-3.822,0v-.086a1.576,1.576,0,0,0-1.032-1.443,1.576,1.576,0,0,0-1.739.315l-.057.057a1.912,1.912,0,1,1-2.7-2.7l.057-.057A1.589,1.589,0,0,0,3.573,14H3.411a1.911,1.911,0,0,1,0-3.822H3.5A1.576,1.576,0,0,0,4.939,9.143,1.576,1.576,0,0,0,4.624,7.4l-.057-.057a1.912,1.912,0,1,1,2.7-2.7l.057.057a1.576,1.576,0,0,0,1.739.315h.076A1.576,1.576,0,0,0,10.1,3.573V3.411a1.911,1.911,0,0,1,3.822,0V3.5a1.589,1.589,0,0,0,2.694,1.127l.057-.057a1.912,1.912,0,1,1,2.7,2.7l-.057.057A1.576,1.576,0,0,0,19,9.067v.076a1.576,1.576,0,0,0,1.443.955h.162a1.911,1.911,0,0,1,0,3.822h-.086a1.576,1.576,0,0,0-1.443.955Z" transform="translate(-1.5 -1.5)" fill="none" stroke="#780095" stroke-linecap="round" stroke-linejoin="round" stroke-width="3"/>
    </g>
  </g>
</svg>
